<?xml version="1.0" encoding="UTF-8"?>
<svg version="1.1" xmlns="http://www.w3.org/2000/svg" width="512" height="512">
<path d="M0 0 C168.96 0 337.92 0 512 0 C512 168.96 512 337.92 512 512 C343.04 512 174.08 512 0 512 C0 343.04 0 174.08 0 0 Z " fill="#FBFBFB" transform="translate(0,0)"/>
<path d="M0 0 C96.03 0 192.06 0 291 0 C291.66 1.32 292.32 2.64 293 4 C294.32267513 4.68757016 295.65743713 5.35212104 297 6 C298.40964581 7.42639408 299.75839525 8.91401315 301.0625 10.4375 C306.13572371 16.22349068 311.52382327 21.59849841 317 27 C318.66666667 28.66666667 320.33333333 30.33333333 322 32 C323.7196007 33.70878769 325.43967198 35.41710192 327.16015625 37.125 C328.62612092 38.58359471 330.09160728 40.0426681 331.55688477 41.50195312 C332.56152835 42.50154661 333.56706459 43.50024371 334.57348633 44.49804688 C336.042279 45.9546375 337.50775281 47.41449925 338.97265625 48.875 C339.84156494 49.73867188 340.71047363 50.60234375 341.60571289 51.4921875 C347.88386677 58.06802074 347.88386677 58.06802074 348.30172825 61.4213953 C347.92974997 64.6003649 347.10671836 65.51347813 344.85813904 67.74986267 C344.16146622 68.45485397 343.4647934 69.15984528 342.74700928 69.88619995 C341.97254456 70.64425934 341.19807983 71.40231873 340.40014648 72.18334961 C339.59209061 72.99374191 338.78403473 73.80413422 337.95149231 74.63908386 C335.26986245 77.32233201 332.57080449 79.98729788 329.87109375 82.65234375 C328.00354468 84.5131037 326.13702684 86.37489917 324.27149963 88.23768616 C320.35446483 92.14551416 316.42839122 96.04405912 312.49584961 99.9362793 C306.96777822 105.40771776 301.45683541 110.89616081 295.94894302 116.38790119 C291.65571156 120.66711741 287.35723777 124.94106575 283.05859375 129.21484375 C282.14712523 130.1214015 281.2356567 131.02795925 280.29656792 131.96198845 C277.70232788 134.53986299 275.10460673 137.11417276 272.50561523 139.68725586 C271.74532013 140.44329102 270.98502502 141.19932617 270.20169067 141.97827148 C266.41572398 145.71878795 262.57770893 149.32138266 258.48857212 152.72950077 C256.19219954 154.68945928 254.10566404 156.83892375 252 159 C250.83843525 160.1631348 249.67665041 161.32605092 248.51355934 162.48765945 C246.79992322 164.19991566 245.08857761 165.91444176 243.37748718 167.62924194 C242.70062866 168.30754562 242.02377014 168.9858493 241.32640076 169.68470764 C240.59953568 170.41314377 239.87267059 171.1415799 239.1237793 171.89208984 C231.19157772 179.84067029 223.25681864 187.78669307 215.32057476 195.73123741 C210.52428349 200.53268222 205.72893863 205.33506523 200.93579102 210.13964844 C196.28984952 214.79666809 191.64125796 219.45103141 186.99106789 224.10380936 C185.22445086 225.8722673 183.45871098 227.64160195 181.6938839 229.41184616 C179.21973414 231.89329144 176.7424351 234.37155233 174.2644043 236.84912109 C173.54361191 237.57350876 172.82281952 238.29789642 172.08018494 239.04423523 C168.09562149 243.02080613 164.01627457 246.80903102 159.72190571 250.45012856 C157.1701313 252.74695716 155.1512211 255.3255089 153 258 C151.3447095 259.67796571 149.67627257 261.34299493 148 263 C147.05482244 263.95457493 146.11084011 264.91033458 145.16796875 265.8671875 C144.17450318 266.86981546 143.18101335 267.87241938 142.1875 268.875 C141.70474609 269.36613281 141.22199219 269.85726563 140.72460938 270.36328125 C138.03839242 273.06705518 135.29003985 275.63425859 132.38989258 278.10791016 C127.55063267 282.32613534 123.04623601 286.84614698 118.53125 291.40625 C117.65150513 292.28978149 116.77176025 293.17331299 115.86535645 294.08361816 C113.07445494 296.88665133 110.28670768 299.69279916 107.5 302.5 C103.82601262 306.2010055 100.14834398 309.89831822 96.46875 313.59375 C95.63831177 314.43248657 94.80787354 315.27122314 93.95227051 316.13537598 C89.65314475 320.45237752 85.28718455 324.6076073 80.6471405 328.55758667 C78.51134742 330.42791674 76.65311244 332.46649927 74.8125 334.625 C72.00266533 337.90215454 69.06104535 340.95569255 66 344 C64.16985649 345.83481643 62.34000611 347.6699214 60.51049805 349.50537109 C55.1726898 354.85953192 49.83232791 360.21113806 44.49051189 365.56130028 C41.26813927 368.78888991 38.04670892 372.01740856 34.82739258 375.24804688 C31.69859703 378.38776981 28.56730893 381.52498748 25.43433571 384.66054153 C24.24826075 385.8484501 23.06305935 387.0372316 21.8787899 388.22694016 C10.66816252 399.48702661 10.66816252 399.48702661 4.59870911 404.61660767 C2.99731076 406.00232705 1.49744697 407.50255303 0 409 C0 274.03 0 139.06 0 0 Z " fill="#FEFEFE" transform="translate(0,0)"/>
<path d="M0 0 C72.27 0 144.54 0 219 0 C219 68.97 219 137.94 219 209 C214.92647851 205.50841016 211.18492045 202.29491807 207.5 198.5 C204.84045438 195.79974705 202.16863914 193.2298946 199.25 190.8125 C197.03682724 188.96903344 195.43473566 187.318784 193.5625 185.0625 C191.55405005 182.66215738 189.80201689 180.91279601 187.4375 178.9375 C183.82919679 175.8610176 180.61851114 172.50745709 177.4375 169 C168.68327347 159.36710171 159.62324379 149.89510758 149.69140625 141.46484375 C144.51427928 136.98118875 139.97903427 131.93301038 135.578125 126.69921875 C133.91265024 124.77407483 133.91265024 124.77407483 131 123 C130.45061768 123.54938232 129.90123535 124.09876465 129.33520508 124.66479492 C86.55680339 167.44319661 43.77840169 210.22159831 1 253 C0.24754187 253.75259692 -0.50491627 254.50519384 -1.28017616 255.28059673 C-4.0156289 258.01562648 -6.75231208 260.74942084 -9.48947144 263.48274231 C-10.59108791 264.58289279 -11.69270111 265.68304657 -12.79431152 266.78320312 C-13.66863579 267.65636421 -13.66863579 267.65636421 -14.56062317 268.54716492 C-28.008769 281.97758911 -41.45402414 295.41090409 -54.89765739 308.84584522 C-62.6652773 316.6083073 -70.43383637 324.36982513 -78.20458984 332.12915039 C-84.99509175 338.90967097 -91.78382135 345.69196019 -98.57044804 352.47635955 C-102.15809282 356.06270415 -105.7466035 359.64817233 -109.33724594 363.23151588 C-112.71618525 366.60364097 -116.09274089 369.97813489 -119.46752548 373.3544178 C-120.70215446 374.58877298 -121.93763256 375.82227955 -123.17404938 377.0548439 C-128.84119342 382.70520235 -134.48629147 388.33597649 -139.67158699 394.44042492 C-141.56189889 396.659677 -143.57361682 398.74246789 -145.625 400.8125 C-146.69621094 401.90498047 -146.69621094 401.90498047 -147.7890625 403.01953125 C-151.9470213 406.74406325 -155.06516307 408.37657405 -160.68843079 408.36076355 C-162.38998573 408.36694954 -162.38998573 408.36694954 -164.12591553 408.3732605 C-165.36093811 408.36247467 -166.59596069 408.35168884 -167.8684082 408.34057617 C-169.82997108 408.34123329 -169.82997108 408.34123329 -171.8311615 408.34190369 C-175.40938797 408.34276331 -178.98731184 408.32514312 -182.56546807 408.30418181 C-186.30772375 408.28540943 -190.04998661 408.28366413 -193.7922821 408.28010559 C-200.87537585 408.27078676 -207.95833043 408.24617523 -215.04136294 408.21605712 C-223.10660204 408.18250803 -231.17184783 408.16602583 -239.23713934 408.15097082 C-255.82484098 408.11962548 -272.41240272 408.0668682 -289 408 C-287.64638856 405.18352936 -286.46347348 403.24679813 -284.13305664 401.15209961 C-283.24293129 400.33848717 -283.24293129 400.33848717 -282.33482361 399.50843811 C-281.67905838 398.91655197 -281.02329315 398.32466583 -280.34765625 397.71484375 C-273.28439266 391.21399984 -266.41376299 384.53547554 -259.62109375 377.75390625 C-259.12735889 377.26103497 -258.63362404 376.76816368 -258.12492752 376.2603569 C-255.58904806 373.72737007 -253.05572608 371.19184834 -250.52416992 368.65454102 C-247.93254199 366.05715597 -245.33636357 363.4643725 -242.73889065 360.87283421 C-240.70458553 358.84216356 -238.67269341 356.80909182 -236.64149666 354.77531242 C-235.22770681 353.36054967 -233.81193624 351.94776715 -232.39610291 350.53504944 C-227.92556329 346.04828959 -223.58010063 341.51564521 -219.46887207 336.69592285 C-217.12264237 333.98702489 -214.60569458 331.46010191 -212.0625 328.9375 C-211.58876953 328.45990234 -211.11503906 327.98230469 -210.62695312 327.49023438 C-207.97249328 324.84284367 -205.24554963 322.33306328 -202.39428711 319.89868164 C-197.5545677 315.6773219 -193.0479404 311.15557444 -188.53125 306.59375 C-187.65150513 305.71021851 -186.77176025 304.82668701 -185.86535645 303.91638184 C-183.07445494 301.11334867 -180.28670768 298.30720084 -177.5 295.5 C-173.82601262 291.7989945 -170.14834398 288.10168178 -166.46875 284.40625 C-165.63831177 283.56751343 -164.80787354 282.72877686 -163.95227051 281.86462402 C-159.69393112 277.58857844 -155.37387941 273.4663516 -150.77722168 269.55456543 C-147.69631098 266.85964148 -144.8641379 263.92099424 -142 261 C-141.21625 260.236875 -140.4325 259.47375 -139.625 258.6875 C-136.54221437 255.53131472 -133.65719939 252.22552281 -130.76953125 248.890625 C-128.61594181 246.54670898 -126.29205267 244.4791314 -123.89526367 242.38598633 C-116.75571774 235.98444868 -110.05275385 229.14763678 -103.29933167 222.3439312 C-100.86441411 219.8914562 -98.42582553 217.44268558 -95.98620605 214.99488831 C-89.05810449 208.0424597 -82.13586382 201.08421613 -75.21777344 194.12182617 C-70.96999718 189.84735872 -66.71743588 185.57770131 -62.46183777 181.3110218 C-60.84275345 179.68571565 -59.22557081 178.05851285 -57.61030579 176.42941093 C-55.36512768 174.16514184 -53.11397242 171.90698418 -50.86132812 169.65014648 C-50.19227448 168.97233124 -49.52322083 168.29451599 -48.83389282 167.59616089 C-47.91747513 166.68169945 -47.91747513 166.68169945 -46.98254395 165.74876404 C-46.45167427 165.21475196 -45.9208046 164.68073988 -45.37384796 164.13054562 C-44 163 -44 163 -42 163 C-41.731875 162.401875 -41.46375 161.80375 -41.1875 161.1875 C-40.00082594 159.00152146 -38.90400887 157.58667406 -37 156 C-36.34 156 -35.68 156 -35 156 C-34.59335664 155.09792895 -34.59335664 155.09792895 -34.17849827 154.17763424 C-33.01011615 152.01869266 -31.95369256 150.78630486 -30.14402771 149.15785217 C-29.56516091 148.62921035 -28.98629412 148.10056852 -28.3898859 147.55590725 C-27.75905314 146.9883978 -27.12822039 146.42088835 -26.47827148 145.83618164 C-20.71801302 140.55566995 -15.06248913 135.18984387 -9.50415039 129.69702148 C-8.77178885 128.97329881 -8.03942732 128.24957613 -7.28487301 127.50392246 C-4.9700476 125.21207095 -2.6582908 122.91717013 -0.34765625 120.62109375 C0.45499727 119.8237639 1.25765079 119.02643406 2.08462715 118.2049427 C6.30880434 114.0071837 10.52951383 109.80597043 14.74780273 105.60229492 C18.22758484 102.13598347 21.7145566 98.67714634 25.20776367 95.22436523 C29.45709851 91.02415965 33.69420239 86.8119856 37.92260933 82.59071541 C39.52879251 80.99125187 41.13923296 79.39605167 42.75398064 77.80523491 C44.99617109 75.59447411 47.22227439 73.36866562 49.44506836 71.13842773 C50.11345734 70.48644409 50.78184631 69.83446045 51.4704895 69.16271973 C54.94950652 65.72492368 54.94950652 65.72492368 56.54078674 61.22914124 C55.69304618 57.73472599 53.39367516 55.60852163 50.9375 53.125 C50.40890381 52.57199219 49.88030762 52.01898438 49.33569336 51.44921875 C47.57284865 49.61673772 45.78954584 47.80640184 44 46 C43.02981934 45.01725098 43.02981934 45.01725098 42.04003906 44.01464844 C38.24604622 40.1799197 34.42819053 36.37016809 30.59277344 32.5769043 C28.38683602 30.3929451 26.19497407 28.19497407 24 26 C22.67993253 24.69115907 21.35959329 23.38259222 20.0390625 22.07421875 C18.56765116 20.6120367 17.0962984 19.1497957 15.625 17.6875 C14.53058594 16.6056543 14.53058594 16.6056543 13.4140625 15.50195312 C8.74640264 10.85513103 4.10766153 6.15866758 0 1 C0 0.67 0 0.34 0 0 Z " fill="#09375D" transform="translate(291,0)"/>
<path d="M0 0 C3.31762508 1.31571127 5.44547914 3.56610867 7.84301758 6.11669922 C8.3300415 6.6184668 8.81706543 7.12023437 9.31884766 7.63720703 C11.66014012 10.07035353 13.92378433 12.54039 16.03051758 15.17919922 C18.48456438 18.09752515 21.13231686 20.40468855 24.02661133 22.87060547 C29.56490274 27.79249345 34.6622931 33.21106928 39.86254883 38.48388672 C42.29327895 40.88016555 44.79040425 43.16375489 47.34301758 45.42919922 C51.41193214 49.07863805 55.39090604 52.71130723 59.00708008 56.81982422 C64.34947827 62.88416811 69.94807282 68.64559348 75.65551758 74.36669922 C76.44466553 75.16035889 77.23381348 75.95401855 78.046875 76.77172852 C78.80073486 77.52365479 79.55459473 78.27558105 80.33129883 79.05029297 C81.3451062 80.06240845 81.3451062 80.06240845 82.37939453 81.0949707 C84.25786941 82.97592326 84.25786941 82.97592326 86.43736267 84.19552612 C88.34301758 85.92919922 88.34301758 85.92919922 88.82403564 88.4539032 C88.8151532 89.45984024 88.80627075 90.46577728 88.79711914 91.50219727 C88.79663574 92.65909058 88.79615234 93.81598389 88.7956543 95.00793457 C88.77519043 96.22331909 88.75472656 97.43870361 88.73364258 98.69091797 C88.72961426 99.80841431 88.72558594 100.92591064 88.72143555 102.07727051 C88.70048541 106.25724676 88.64464009 110.43698924 88.59301758 114.61669922 C88.51051758 123.95982422 88.42801758 133.30294922 88.34301758 142.92919922 C55.67301758 142.92919922 23.00301758 142.92919922 -10.65698242 142.92919922 C-10.65698242 211.23919922 -10.65698242 279.54919922 -10.65698242 349.92919922 C-34.41698242 349.92919922 -58.17698242 349.92919922 -82.65698242 349.92919922 C-82.85548229 316.08514199 -83.02162354 282.24165075 -83.11657039 248.39718635 C-83.12782642 244.39939274 -83.13947536 240.40160036 -83.15136719 236.40380859 C-83.15490838 235.21000203 -83.15490838 235.21000203 -83.15852111 233.99207817 C-83.19765756 221.11408742 -83.26860422 208.23645914 -83.35135759 195.35868324 C-83.43559312 182.13977251 -83.48552645 168.9210513 -83.50377887 155.7018832 C-83.51611357 147.5481025 -83.55503423 139.39534638 -83.62823062 131.24188118 C-83.67589382 125.64676716 -83.69016367 120.05218091 -83.67849482 114.45687874 C-83.67274288 111.23061736 -83.6863608 108.00651356 -83.7298317 104.78048897 C-84.00906269 82.98734186 -84.00906269 82.98734186 -78.3558197 76.60665894 C-76.82489596 75.33695931 -75.25909746 74.10779671 -73.65698242 72.92919922 C-72.23039395 71.45876894 -70.82560222 69.96654564 -69.45385742 68.44482422 C-67.42013156 66.29767903 -65.38291806 64.15390429 -63.34448242 62.01123047 C-60.38564214 58.88609877 -57.48837575 55.7740799 -54.79760742 52.41357422 C-54.09120117 51.59373047 -53.38479492 50.77388672 -52.65698242 49.92919922 C-51.99698242 49.92919922 -51.33698242 49.92919922 -50.65698242 49.92919922 C-50.32698242 48.93919922 -49.99698242 47.94919922 -49.65698242 46.92919922 C-47.71948242 44.74169922 -47.71948242 44.74169922 -45.65698242 42.92919922 C-44.99698242 42.92919922 -44.33698242 42.92919922 -43.65698242 42.92919922 C-43.32698242 41.93919922 -42.99698242 40.94919922 -42.65698242 39.92919922 C-40.27852651 37.35253864 -37.85913412 35.08697615 -35.09448242 32.92919922 C-32.5313651 30.96896604 -32.5313651 30.96896604 -30.46948242 28.17919922 C-29.87135742 27.43669922 -29.27323242 26.69419922 -28.65698242 25.92919922 C-27.99698242 25.92919922 -27.33698242 25.92919922 -26.65698242 25.92919922 C-26.31147339 25.10125854 -26.31147339 25.10125854 -25.95898438 24.2565918 C-23.3390488 19.573328 -19.14169958 15.96236878 -15.38134766 12.1730957 C-13.84572762 10.61796025 -12.33272389 9.04281425 -10.8190918 7.46630859 C-9.8432038 6.47736858 -8.86603238 5.48969306 -7.88745117 4.50341797 C-7.00468506 3.60196045 -6.12191895 2.70050293 -5.21240234 1.77172852 C-2.65698242 -0.07080078 -2.65698242 -0.07080078 0 0 Z " fill="#FD7D1B" transform="translate(421.656982421875,162.07080078125)"/>
<path d="M0 0 C32.67 0 65.34 0 99 0 C99 68.31 99 136.62 99 207 C66.33 207 33.66 207 0 207 C0 138.69 0 70.38 0 0 Z " fill="#09365C" transform="translate(411,305)"/>
<path d="M0 0 C0 79.2 0 158.4 0 240 C-29.7 240 -59.4 240 -90 240 C-91.89424261 204.27807734 -91.89424261 204.27807734 -92.29492188 188.97460938 C-92.57100451 178.51582578 -92.89135872 168.07542198 -93.5456543 157.63256836 C-97.36194417 95.50931463 -97.36194417 95.50931463 -79.57470703 74.92236328 C-70.2121547 64.39824984 -59.34271819 55.37274583 -48.06251526 46.9858551 C-43.36951776 43.44901699 -39.69699208 39.53839229 -36 35 C-34.581381 33.5438638 -33.14822771 32.10139075 -31.6875 30.6875 C-29.42037191 28.49163723 -27.7670286 26.6505429 -26 24 C-25.34 24 -24.68 24 -24 24 C-23.7628125 23.43829102 -23.525625 22.87658203 -23.28125 22.29785156 C-21.70680643 19.47417342 -19.78315455 17.52385158 -17.5 15.234375 C-16.613125 14.34492188 -15.72625 13.45546875 -14.8125 12.5390625 C-13.884375 11.61867188 -12.95625 10.69828125 -12 9.75 C-11.071875 8.81414062 -10.14375 7.87828125 -9.1875 6.9140625 C-7.8571875 5.58761719 -7.8571875 5.58761719 -6.5 4.234375 C-5.6853125 3.42194336 -4.870625 2.60951172 -4.03125 1.77246094 C-2 0 -2 0 0 0 Z " fill="#07375D" transform="translate(313,272)"/>
<path d="M0 0 C0 37.62 0 75.24 0 114 C-26.07 114 -52.14 114 -79 114 C-79 91.56 -79 69.12 -79 46 C-70.09 45.67 -61.18 45.34 -52 45 C-46.56959262 42.33520123 -46.56959262 42.33520123 -42.265625 38.7421875 C-41.28940186 37.81152466 -41.28940186 37.81152466 -40.29345703 36.86206055 C-39.2819458 35.87846558 -39.2819458 35.87846558 -38.25 34.875 C-36.81589908 33.50307483 -35.3810069 32.13197629 -33.9453125 30.76171875 C-33.25985352 30.10478027 -32.57439453 29.4478418 -31.86816406 28.77099609 C-29.66871939 26.68595014 -27.4081426 24.68027778 -25.125 22.6875 C-19.15957583 17.39856723 -13.63012292 11.64771336 -8.06689453 5.94213867 C-7.31263184 5.17619385 -6.55836914 4.41024902 -5.78125 3.62109375 C-4.7612793 2.57586548 -4.7612793 2.57586548 -3.72070312 1.50952148 C-2 0 -2 0 0 0 Z " fill="#07375D" transform="translate(197,398)"/>
<path d="M0 0 C29.37 0 58.74 0 89 0 C89 23.76 89 47.52 89 72 C59.63 72 30.26 72 0 72 C0 48.24 0 24.48 0 0 Z " fill="#07375D" transform="translate(2,440)"/>
<path d="M0 0 C32.67 0 65.34 0 99 0 C99 68.31 99 136.62 99 207 C98.67 207 98.34 207 98 207 C98 139.35 98 71.7 98 2 C66.32 2 34.64 2 2 2 C2 69.65 2 137.3 2 207 C1.34 207 0.68 207 0 207 C0 138.69 0 70.38 0 0 Z " fill="#2A2D3A" transform="translate(411,305)"/>
<path d="M0 0 C0 79.2 0 158.4 0 240 C-0.99 240 -1.98 240 -3 240 C-3 163.11 -3 86.22 -3 7 C-3.99 7 -4.98 7 -6 7 C-6.33 7.99 -6.66 8.98 -7 10 C-10.0625 11.1875 -10.0625 11.1875 -13 12 C-2.93659942 0 -2.93659942 0 0 0 Z " fill="#2C415C" transform="translate(313,272)"/>
<path d="M0 0 C0.66 0 1.32 0 2 0 C2 68.97 2 137.94 2 209 C-2.19093221 205.40777239 -6.10213793 202.01936764 -9.9375 198.125 C-10.70964844 197.34382812 -11.48179687 196.56265625 -12.27734375 195.7578125 C-12.84582031 195.17773438 -13.41429687 194.59765625 -14 194 C-13.01 193.01 -13.01 193.01 -12 192 C-11.236875 192.78375 -10.47375 193.5675 -9.6875 194.375 C-7.09108195 197.07257717 -7.09108195 197.07257717 -4 199 C-4 199.99 -4 200.98 -4 202 C-3.01 202 -2.02 202 -1 202 C-1.00114555 201.21080705 -1.00229111 200.42161409 -1.00347137 199.6085062 C-1.03151495 176.91419607 -0.93951076 154.22180991 -0.79807091 131.52798343 C-0.76931854 126.87966766 -0.74172378 122.231345 -0.71398926 117.58302307 C-0.66165568 108.83991483 -0.60832972 100.09681296 -0.5546174 91.3537131 C-0.49336422 81.37490782 -0.43326275 71.3960957 -0.37324238 61.41728294 C-0.25008018 40.94484761 -0.12552248 20.47242098 0 0 Z " fill="#233651" transform="translate(508,0)"/>
<path d="M0 0 C29.37 0 58.74 0 89 0 C89 23.76 89 47.52 89 72 C88.34 72 87.68 72 87 72 C87 48.9 87 25.8 87 2 C45.42 2.495 45.42 2.495 3 3 C2.67 25.77 2.34 48.54 2 72 C1.34 72 0.68 72 0 72 C0 48.24 0 24.48 0 0 Z " fill="#243857" transform="translate(2,440)"/>
<path d="M0 0 C0 37.62 0 75.24 0 114 C-0.99 114 -1.98 114 -3 114 C-3.02900455 110.3958502 -3.04680018 106.79173038 -3.0625 103.1875 C-3.07087891 102.16333984 -3.07925781 101.13917969 -3.08789062 100.08398438 C-3.09111328 99.10107422 -3.09433594 98.11816406 -3.09765625 97.10546875 C-3.10289307 96.19949951 -3.10812988 95.29353027 -3.11352539 94.36010742 C-3 92 -3 92 -2 89 C-2.66 89 -3.32 89 -4 89 C-4.02734857 86.97924434 -4.0465517 84.95837779 -4.0625 82.9375 C-4.07410156 81.81214844 -4.08570313 80.68679688 -4.09765625 79.52734375 C-4 76 -4 76 -3.49780273 72.91723633 C-2.89547542 68.17749051 -2.89432147 63.56778861 -2.9375 58.796875 C-2.94128662 57.83726868 -2.94507324 56.87766235 -2.94897461 55.88897705 C-2.96112909 52.84260433 -2.97976821 49.79632912 -3 46.75 C-3.02655365 42.72396101 -3.04654936 38.69796835 -3.0625 34.671875 C-3.07494751 33.28437042 -3.07494751 33.28437042 -3.08764648 31.86883545 C-3.09094971 31.0107428 -3.09425293 30.15265015 -3.09765625 29.26855469 C-3.10289307 28.51467468 -3.10812988 27.76079468 -3.11352539 26.98406982 C-3 25 -3 25 -2 22 C-1.85426942 20.52034074 -1.75336732 19.03596157 -1.68359375 17.55078125 C-1.64169922 16.70322266 -1.59980469 15.85566406 -1.55664062 14.98242188 C-1.51732422 14.10134766 -1.47800781 13.22027344 -1.4375 12.3125 C-1.39431641 11.41982422 -1.35113281 10.52714844 -1.30664062 9.60742188 C-1.20064647 7.40509892 -1.09857949 5.20266527 -1 3 C-2.46953125 4.17369141 -2.46953125 4.17369141 -3.96875 5.37109375 C-4.51982422 5.81122803 -5.07089844 6.2513623 -5.63867188 6.70483398 C-7.1824758 7.93945145 -7.1824758 7.93945145 -7.5 10.0625 C-8.34546191 13.33866488 -11.240438 14.31047225 -14 16 C-14.66 16.66 -15.32 17.32 -16 18 C-16.99 17.67 -17.98 17.34 -19 17 C-16.21641519 14.15862758 -13.42184273 11.32831845 -10.625 8.5 C-9.43390625 7.28376953 -9.43390625 7.28376953 -8.21875 6.04296875 C-7.45820313 5.27597656 -6.69765625 4.50898438 -5.9140625 3.71875 C-5.2123291 3.00654297 -4.5105957 2.29433594 -3.78759766 1.56054688 C-2 0 -2 0 0 0 Z " fill="#103358" transform="translate(197,398)"/>
<path d="M0 0 C0.33 0.66 0.66 1.32 1 2 C-0.98 4.97 -0.98 4.97 -3 8 C39.24 8.33 81.48 8.66 125 9 C124.67 9.66 124.34 10.32 124 11 C79.78 11 35.56 11 -10 11 C-8.12078169 7.24156337 -6.97529385 5.85024645 -3.875 3.25 C-3.15054687 2.63640625 -2.42609375 2.0228125 -1.6796875 1.390625 C-0.84824219 0.70226562 -0.84824219 0.70226562 0 0 Z " fill="#162C4E" transform="translate(12,397)"/>
<path d="M0 0 C1.32 0.66 2.64 1.32 4 2 C4 20.81 4 39.62 4 59 C-28.67 59 -61.34 59 -95 59 C-95 58.34 -95 57.68 -95 57 C-62.66 57 -30.32 57 3 57 C2.87625 48.523125 2.7525 40.04625 2.625 31.3125 C2.59100098 28.64325439 2.55700195 25.97400879 2.52197266 23.22387695 C2.48676081 21.10366566 2.4508389 18.98346598 2.4140625 16.86328125 C2.40270264 15.76608765 2.39134277 14.66889404 2.37963867 13.53845215 C2.35957764 12.48331421 2.3395166 11.42817627 2.31884766 10.34106445 C2.30552399 9.4283931 2.29220032 8.51572174 2.2784729 7.57539368 C1.9738622 4.75827042 1.16355618 2.57172546 0 0 Z " fill="#D78138" transform="translate(506,246)"/>
<path d="M0 0 C29.04 0 58.08 0 88 0 C88 0.33 88 0.66 88 1 C59.95 1.33 31.9 1.66 3 2 C2.67 24.77 2.34 47.54 2 71 C1.34 71 0.68 71 0 71 C0 47.57 0 24.14 0 0 Z " fill="#19304C" transform="translate(2,441)"/>
<path d="M0 0 C4.84212375 0.42724621 7.58386336 2.78954698 11 6 C11.94875 6.886875 12.8975 7.77375 13.875 8.6875 C16 11 16 11 16 13 C16.8353125 13.061875 16.8353125 13.061875 17.6875 13.125 C20.57039096 14.21582361 21.83999191 15.98936854 23.7109375 18.37109375 C27.33748663 22.98418806 27.33748663 22.98418806 32.3125 25.8125 C32.869375 25.874375 33.42625 25.93625 34 26 C34.495 29.96 34.495 29.96 35 34 C36.32 34.33 37.64 34.66 39 35 C39 35.99 39 36.98 39 38 C40.65 38.33 42.3 38.66 44 39 C44.28875 39.969375 44.5775 40.93875 44.875 41.9375 C45.64214682 45.10664203 45.64214682 45.10664203 48 46 C47.01 46 46.02 46 45 46 C43.80738105 44.60293208 42.62409299 43.19669578 41.4921875 41.75 C39.93187695 39.920107 38.28701732 38.47236915 36.4375 36.9375 C32.82923943 33.86105395 29.61815457 30.50775061 26.4375 27 C20.06095991 19.97133726 13.37196998 13.2812571 6.62548828 6.609375 C4.40865929 4.41452118 2.2037733 2.20795503 0 0 Z " fill="#1A3350" transform="translate(442,142)"/>
<path d="M0 0 C0 37.62 0 75.24 0 114 C-0.33 114 -0.66 114 -1 114 C-1 77.37 -1 40.74 -1 3 C-6.96504259 6.96137225 -6.96504259 6.96137225 -7.5 10.0625 C-8.34546191 13.33866488 -11.240438 14.31047225 -14 16 C-14.66 16.66 -15.32 17.32 -16 18 C-16.99 17.67 -17.98 17.34 -19 17 C-16.21641519 14.15862758 -13.42184273 11.32831845 -10.625 8.5 C-9.43390625 7.28376953 -9.43390625 7.28376953 -8.21875 6.04296875 C-7.45820313 5.27597656 -6.69765625 4.50898438 -5.9140625 3.71875 C-5.2123291 3.00654297 -4.5105957 2.29433594 -3.78759766 1.56054688 C-2 0 -2 0 0 0 Z " fill="#263549" transform="translate(197,398)"/>
<path d="M0 0 C-13.33333333 13.33333333 -26.66666667 26.66666667 -40 40 C-41 37 -41 37 -40 34 C-38.66923011 33.65657551 -37.33568021 33.32380126 -36 33 C-35.34 32.01 -34.68 31.02 -34 30 C-33.34 30 -32.68 30 -32 30 C-32 29.34 -32 28.68 -32 28 C-31.01 27.34 -30.02 26.68 -29 26 C-28.27034634 23.43717258 -28.27034634 23.43717258 -28 21 C-26.35 21 -24.7 21 -23 21 C-22.773125 20.21625 -22.54625 19.4325 -22.3125 18.625 C-21 16 -21 16 -18.375 14.6875 C-17.199375 14.3471875 -17.199375 14.3471875 -16 14 C-16 13.34 -16 12.68 -16 12 C-15.01 12 -14.02 12 -13 12 C-12.34 10.02 -11.68 8.04 -11 6 C-10.01 6 -9.02 6 -8 6 C-8 5.01 -8 4.02 -8 3 C-7.34 3 -6.68 3 -6 3 C-6 2.01 -6 1.02 -6 0 C-2.25 -1.125 -2.25 -1.125 0 0 Z " fill="#253958" transform="translate(412,133)"/>
<path d="M0 0 C0.495 0.99 0.495 0.99 1 2 C-1.45454545 7.72727273 -1.45454545 7.72727273 -4 9 C-4.66 9.680625 -5.32 10.36125 -6 11.0625 C-8 13 -8 13 -10 13 C-10.33 13.99 -10.66 14.98 -11 16 C-11.99 16.33 -12.98 16.66 -14 17 C-14.33 17.99 -14.66 18.98 -15 20 C-16.62102968 21.71108689 -18.29503463 23.37253306 -20 25 C-20.886875 25.928125 -21.77375 26.85625 -22.6875 27.8125 C-25 30 -25 30 -27 30 C-27.33 30.99 -27.66 31.98 -28 33 C-30.475 33.495 -30.475 33.495 -33 34 C-29.03627475 29.24914133 -24.90205218 24.76386888 -20.5078125 20.41015625 C-19.91700897 19.82076767 -19.32620544 19.23137909 -18.71749878 18.62413025 C-16.85569596 16.76786273 -14.99042255 14.91512915 -13.125 13.0625 C-11.85132989 11.79385328 -10.57789029 10.5249751 -9.3046875 9.25585938 C-6.20577957 6.16789446 -3.10375699 3.08309071 0 0 Z " fill="#30445F" transform="translate(316,95)"/>
<path d="M0 0 C0 4.28535967 -2.2516278 5.84942699 -5 9 C-5.33 9.66 -5.66 10.32 -6 11 C-6.99 11.33 -7.98 11.66 -9 12 C-9.495 12.825 -9.99 13.65 -10.5 14.5 C-12 17 -12 17 -15 18 C-15.144375 18.639375 -15.28875 19.27875 -15.4375 19.9375 C-15.623125 20.618125 -15.80875 21.29875 -16 22 C-17.33333333 22.66666667 -18.66666667 23.33333333 -20 24 C-20.144375 24.639375 -20.28875 25.27875 -20.4375 25.9375 C-21 28 -21 28 -23.375 29.6875 C-26 31 -26 31 -29 32 C-29.33 32.99 -29.66 33.98 -30 35 C-30.99 34.34 -31.98 33.68 -33 33 C-22.11 22.11 -11.22 11.22 0 0 Z " fill="#243D5B" transform="translate(53,356)"/>
<path d="M0 0 C0 3.7794561 -1.04679411 5.79116175 -3 9 C-5.125 9.6875 -5.125 9.6875 -7 10 C-7.33 10.99 -7.66 11.98 -8 13 C-8.66 13 -9.32 13 -10 13 C-11.20628008 15.33214148 -12.1654738 17.49642139 -13 20 C-15.3125 21.75 -15.3125 21.75 -18 23 C-19.32 22.67 -20.64 22.34 -22 22 C-14.74 14.74 -7.48 7.48 0 0 Z " fill="#4B5A73" transform="translate(243,167)"/>
<path d="M0 0 C0 0.99 0 1.98 0 3 C1.32 3.66 2.64 4.32 4 5 C3.21625 5.4125 2.4325 5.825 1.625 6.25 C-1.09431808 7.74934647 -1.09431808 7.74934647 -2.0625 10.125 C-2.371875 10.74375 -2.68125 11.3625 -3 12 C-3.66 12.144375 -4.32 12.28875 -5 12.4375 C-5.66 12.623125 -6.32 12.80875 -7 13 C-8.29660434 15.49034386 -8.29660434 15.49034386 -9 18 C-10.98 17.67 -12.96 17.34 -15 17 C-10.10995345 11.23225279 -5.07515796 5.60523001 0 0 Z " fill="#1A3755" transform="translate(69,339)"/>
<path d="M0 0 C-0.66 1.32 -1.32 2.64 -2 4 C-2.33 3.67 -2.66 3.34 -3 3 C-4.33402331 3.33056117 -5.66718749 3.66459023 -7 4 C-11.03855117 4.24785603 -15.07960406 4.23107417 -19.125 4.25 C-20.23488281 4.270625 -21.34476563 4.29125 -22.48828125 4.3125 C-24.07576172 4.32023437 -24.07576172 4.32023437 -25.6953125 4.328125 C-27.1496167 4.34214355 -27.1496167 4.34214355 -28.63330078 4.35644531 C-29.41431152 4.23881836 -30.19532227 4.12119141 -31 4 C-31.66 3.01 -32.32 2.02 -33 1 C-32.19780029 0.97494385 -31.39560059 0.9498877 -30.5690918 0.92407227 C-26.94172926 0.80817957 -23.31463083 0.68542249 -19.6875 0.5625 C-18.42486328 0.52318359 -17.16222656 0.48386719 -15.86132812 0.44335938 C-14.65283203 0.40146484 -13.44433594 0.35957031 -12.19921875 0.31640625 C-11.08377686 0.27974854 -9.96833496 0.24309082 -8.8190918 0.20532227 C-1.07590618 -0.35863539 -1.07590618 -0.35863539 0 0 Z " fill="#425774" transform="translate(151,443)"/>
<path d="M0 0 C1 3 1 3 1 6 C-0.91487817 7.65956108 -2.73576718 8.86788359 -5 10 C-5.9590625 11.0209375 -5.9590625 11.0209375 -6.9375 12.0625 C-9 14 -9 14 -12 14 C-12.04125 14.61875 -12.0825 15.2375 -12.125 15.875 C-12.41375 16.57625 -12.7025 17.2775 -13 18 C-16.0625 19.25 -16.0625 19.25 -19 20 C-13.17371096 12.84198775 -6.5617015 6.47408234 0 0 Z " fill="#F2904F" transform="translate(416,165)"/>
<path d="M0 0 C5.96351455 1.27789598 8.48417174 4.33716394 12 9 C7.66666667 9 3.33333333 9 -1 9 C-0.814375 8.236875 -0.62875 7.47375 -0.4375 6.6875 C0.22819173 3.91032625 0.22819173 3.91032625 -1 1 C-0.67 0.67 -0.34 0.34 0 0 Z " fill="#F67B1D" transform="translate(481,224)"/>
<path d="M0 0 C12.64285714 9.21428571 12.64285714 9.21428571 15 15 C14.34 15 13.68 15 13 15 C12.67 14.34 12.34 13.68 12 13 C9.97536745 12.34786708 9.97536745 12.34786708 8 12 C7.67 10.35 7.34 8.7 7 7 C6.67 7.66 6.34 8.32 6 9 C5.01 9 4.02 9 3 9 C3 9.66 3 10.32 3 11 C1.68 10.67 0.36 10.34 -1 10 C-0.67 6.7 -0.34 3.4 0 0 Z " fill="#F47D21" transform="translate(454,194)"/>
<path d="M0 0 C1.98 0.99 1.98 0.99 4 2 C4 20.15 4 38.3 4 57 C3.67 57 3.34 57 3 57 C2.99191315 56.3596431 2.98382629 55.71928619 2.97549438 55.05952454 C2.88940878 48.39210211 2.78990307 41.72497562 2.68261719 35.05786133 C2.64434422 32.56995617 2.60948843 30.08199599 2.578125 27.59399414 C2.53243858 24.01688988 2.47444892 20.44016383 2.4140625 16.86328125 C2.40251129 15.75165115 2.39096008 14.64002106 2.37905884 13.4947052 C2.3492543 11.93365303 2.3492543 11.93365303 2.31884766 10.34106445 C2.30552399 9.4283931 2.29220032 8.51572174 2.2784729 7.57539368 C1.9738622 4.75827042 1.16355618 2.57172546 0 0 Z " fill="#E9722C" transform="translate(506,246)"/>
<path d="M0 0 C1.32 0 2.64 0 4 0 C4.33 2.64 4.66 5.28 5 8 C6.32 8.33 7.64 8.66 9 9 C9 9.99 9 10.98 9 12 C10.65 12.33 12.3 12.66 14 13 C14.28875 13.969375 14.5775 14.93875 14.875 15.9375 C15.64214682 19.10664203 15.64214682 19.10664203 18 20 C17.01 20 16.02 20 15 20 C13.8180918 18.61547897 12.6449527 17.22208204 11.52734375 15.78515625 C9.24069883 13.11253035 6.56980127 10.95084697 3.8671875 8.7109375 C1.91136359 6.91878086 0.37458248 5.27300241 -1 3 C-0.67 2.01 -0.34 1.02 0 0 Z " fill="#2B3E59" transform="translate(472,168)"/>
<path d="M0 0 C0 9.9 0 19.8 0 30 C-0.33 30 -0.66 30 -1 30 C-1 22.08 -1 14.16 -1 6 C-1.99 6 -2.98 6 -4 6 C-4.33 6.99 -4.66 7.98 -5 9 C-8.0625 10.1875 -8.0625 10.1875 -11 11 C-1.73033708 0 -1.73033708 0 0 0 Z " fill="#103458" transform="translate(311,273)"/>
<path d="M0 0 C4.88049925 3.9419417 9.0580583 8.11950075 13 13 C11.02 13.33 9.04 13.66 7 14 C6.71125 13.195625 6.4225 12.39125 6.125 11.5625 C5.26737432 8.8673532 5.26737432 8.8673532 3 8 C3 7.34 3 6.68 3 6 C2.01 6 1.02 6 0 6 C0 4.02 0 2.04 0 0 Z " fill="#F17B24" transform="translate(493,233)"/>
<path d="M0 0 C0.33 1.32 0.66 2.64 1 4 C-0.423125 5.11375 -0.423125 5.11375 -1.875 6.25 C-4.39245499 8.33219408 -5.61522311 10.03262095 -7 13 C-8.875 14.8125 -8.875 14.8125 -11 16 C-12.32 15.67 -13.64 15.34 -15 15 C-10.05 10.05 -5.1 5.1 0 0 Z " fill="#2D435F" transform="translate(189,221)"/>
<path d="M0 0 C-6 6 -12 12 -18 18 C-18.33 17.01 -18.66 16.02 -19 15 C-18.01 14.67 -17.02 14.34 -16 14 C-16 13.34 -16 12.68 -16 12 C-15.01 12 -14.02 12 -13 12 C-12.34 10.02 -11.68 8.04 -11 6 C-10.01 6 -9.02 6 -8 6 C-8 5.01 -8 4.02 -8 3 C-7.34 3 -6.68 3 -6 3 C-6 2.01 -6 1.02 -6 0 C-2.25 -1.125 -2.25 -1.125 0 0 Z " fill="#233A59" transform="translate(412,133)"/>
<path d="M0 0 C1.65 0 3.3 0 5 0 C3.38989473 4.07376031 0.46177729 6.76507069 -2.625 9.75 C-3.140625 10.25660156 -3.65625 10.76320313 -4.1875 11.28515625 C-5.45383339 12.52803902 -6.7263144 13.76465276 -8 15 C-9 12 -9 12 -7.75 9.3125 C-7.1725 8.549375 -6.595 7.78625 -6 7 C-5.01 7 -4.02 7 -3 7 C-2.67 6.01 -2.34 5.02 -2 4 C-1.34 4 -0.68 4 0 4 C0 2.68 0 1.36 0 0 Z " fill="#32455D" transform="translate(184,354)"/>
<path d="M0 0 C0.33 0.66 0.66 1.32 1 2 C0.109375 4.12890625 0.109375 4.12890625 -1.25 6.5625 C-1.68828125 7.36816406 -2.1265625 8.17382812 -2.578125 9.00390625 C-4 11 -4 11 -7 12 C-7.804375 12.825 -8.60875 13.65 -9.4375 14.5 C-11.96368997 16.96457558 -12.73096247 17.38922441 -16 18 C-12.12109111 13.34530934 -8.08603494 9.01359974 -3.734375 4.796875 C-1.81354893 2.91395053 -1.81354893 2.91395053 0 0 Z " fill="#293C57" transform="translate(272,312)"/>
<path d="M0 0 C5.24972347 4.10037573 9.20962911 8.52964787 13 14 C8.25 12.125 8.25 12.125 6 11 C6 10.01 6 9.02 6 8 C4.35 8 2.7 8 1 8 C-0.35439668 5.29120665 -0.06501451 2.99066732 0 0 Z " fill="#F2823F" transform="translate(425,165)"/>
<path d="M0 0 C0.556875 0.268125 1.11375 0.53625 1.6875 0.8125 C0.35416667 3.47916667 -0.97916667 6.14583333 -2.3125 8.8125 C-4.2925 8.8125 -6.2725 8.8125 -8.3125 8.8125 C-7.82204356 4.398392 -4.79279276 -0.38860482 0 0 Z " fill="#0F3557" transform="translate(285.3125,301.1875)"/>
<path d="M0 0 C0.6875 1.7421875 0.6875 1.7421875 1 4 C-1.51825694 8.39038217 -4.99089359 12.10402519 -9.9375 13.5 C-10.948125 13.665 -11.95875 13.83 -13 14 C-12.67 13.34 -12.34 12.68 -12 12 C-11.34 12 -10.68 12 -10 12 C-9.75507813 11.42765625 -9.51015625 10.8553125 -9.2578125 10.265625 C-7.78889901 7.61975598 -6.04651756 5.85146861 -3.875 3.75 C-3.15054687 3.04359375 -2.42609375 2.3371875 -1.6796875 1.609375 C-1.12539063 1.07828125 -0.57109375 0.5471875 0 0 Z " fill="#3D4E6C" transform="translate(299,284)"/>
<path d="M0 0 C0 3.55151105 -0.54465213 3.93432729 -2.875 6.4375 C-4.61598301 8.31725702 -5.9234566 9.84175296 -7.04296875 12.15625 C-8.4176027 14.80452438 -10.26597057 14.99974533 -13 16 C-14.77277259 17.52007842 -14.77277259 17.52007842 -16 19 C-16.66 18.67 -17.32 18.34 -18 18 C-12.06 12.06 -6.12 6.12 0 0 Z " fill="#3B4D65" transform="translate(134,275)"/>
<path d="M0 0 C1.32176485 0.90325616 2.63215066 1.82317903 3.9375 2.75 C4.66839844 3.26046875 5.39929688 3.7709375 6.15234375 4.296875 C8.20805399 6.19177915 8.62669176 7.27425729 9 10 C9.66 10 10.32 10 11 10 C12.625 11.5 12.625 11.5 14 13 C14.33 12.34 14.66 11.68 15 11 C15 12.98 15 14.96 15 17 C9.33870569 12.30233025 4.14771096 7.25276628 -1 2 C-0.67 1.34 -0.34 0.68 0 0 Z " fill="#1C2E46" transform="translate(495,192)"/>
<path d="M0 0 C0.99 0.33 1.98 0.66 3 1 C2.01 1.495 2.01 1.495 1 2 C0.690625 2.61875 0.38125 3.2375 0.0625 3.875 C-1.05260585 6.10521169 -2.0573401 7.44587208 -4 9 C-4.99 9 -5.98 9 -7 9 C-7 9.99 -7 10.98 -7 12 C-8.65 12.33 -10.3 12.66 -12 13 C-8.19524578 8.43969176 -4.25030379 4.14910608 0 0 Z " fill="#163452" transform="translate(147,263)"/>
<path d="M0 0 C0.33 0.66 0.66 1.32 1 2 C-0.77993393 6.64760525 -2.47600018 8.90351228 -7 11 C-9.3125 11.6875 -9.3125 11.6875 -11 12 C-9.49650623 8.33213607 -7.36271208 6.31089607 -4.375 3.75 C-3.14910156 2.69039062 -3.14910156 2.69039062 -1.8984375 1.609375 C-1.27195312 1.07828125 -0.64546875 0.5471875 0 0 Z " fill="#354967" transform="translate(267,144)"/>
<path d="M0 0 C0.33 0.66 0.66 1.32 1 2 C-2.11180124 8.56935818 -2.11180124 8.56935818 -5.0625 10 C-7 10 -7 10 -10 9 C-8.89902432 7.87187697 -7.79408444 6.74762189 -6.6875 5.625 C-6.07261719 4.99851562 -5.45773438 4.37203125 -4.82421875 3.7265625 C-3 2 -3 2 0 0 Z " fill="#183658" transform="translate(12,397)"/>
<path d="M0 0 C0.33 0.99 0.66 1.98 1 3 C0.01 3.66 -0.98 4.32 -2 5 C-2.6496875 6.175625 -2.6496875 6.175625 -3.3125 7.375 C-5.38251841 10.59502864 -7.74814516 12.0488871 -11 14 C-11.66 13.67 -12.32 13.34 -13 13 C-12.0925 12.278125 -11.185 11.55625 -10.25 10.8125 C-8.07692682 9.01868959 -6.53916537 7.42395671 -4.75 5.1875 C-4.1725 4.465625 -3.595 3.74375 -3 3 C-2.34 3 -1.68 3 -1 3 C-0.67 2.01 -0.34 1.02 0 0 Z " fill="#EF975D" transform="translate(396,185)"/>
<path d="M0 0 C3.43752007 1.5277867 6.18953688 3.50181056 9 6 C9 6.66 9 7.32 9 8 C7.35 7.67 5.7 7.34 4 7 C3.67 7.66 3.34 8.32 3 9 C0 3.375 0 3.375 0 0 Z " fill="#F28B43" transform="translate(469,209)"/>
<path d="M0 0 C0 1.32 0 2.64 0 4 C-2.875 6.125 -2.875 6.125 -6 8 C-6.66 8.66 -7.32 9.32 -8 10 C-8.99 9.67 -9.98 9.34 -11 9 C-9.54782324 7.49403892 -8.08807139 5.99537896 -6.625 4.5 C-5.40683594 3.24703125 -5.40683594 3.24703125 -4.1640625 1.96875 C-2 0 -2 0 0 0 Z " fill="#223857" transform="translate(189,406)"/>
<path d="M0 0 C0 4.05480631 -1.54870092 5.84832975 -4 9 C-4.99 9 -5.98 9 -7 9 C-7 9.99 -7 10.98 -7 12 C-8.32 12.33 -9.64 12.66 -11 13 C-9.46356148 9.31930113 -7.21849055 7.01224796 -4.375 4.25 C-3.55773437 3.45078125 -2.74046875 2.6515625 -1.8984375 1.828125 C-0.95871094 0.92320312 -0.95871094 0.92320312 0 0 Z " fill="#E88643" transform="translate(352,231)"/>
<path d="M0 0 C4.931222 0.43510782 7.54881403 2.54881403 11 6 C12.375 9.3125 12.375 9.3125 13 12 C12.56429688 11.62488281 12.12859375 11.24976563 11.6796875 10.86328125 C11.08414062 10.35152344 10.48859375 9.83976563 9.875 9.3125 C8.92560547 8.49652344 8.92560547 8.49652344 7.95703125 7.6640625 C6.17588663 6.14955629 4.37365561 4.66581794 2.5625 3.1875 C1.716875 2.465625 0.87125 1.74375 0 1 C0 0.67 0 0.34 0 0 Z " fill="#2F3D57" transform="translate(442,142)"/>
<path d="M0 0 C2.125 0.375 2.125 0.375 4 1 C0 5 -4 9 -8 13 C-8.33 12.34 -8.66 11.68 -9 11 C-8.21625 10.2575 -7.4325 9.515 -6.625 8.75 C-4.39419953 6.41297094 -3.283095 4.86228885 -2 2 C-1.34 1.34 -0.68 0.68 0 0 Z " fill="#32475E" transform="translate(162,378)"/>
<path d="M0 0 C0.81864929 2.29221801 1.05688635 3.72369489 0.5625 6.125 C-1.98593523 9.18312228 -5.1637451 9.25749905 -9 10 C-8.06409496 8.8944811 -7.12620142 7.79064547 -6.1875 6.6875 C-5.66542969 6.07261719 -5.14335938 5.45773437 -4.60546875 4.82421875 C-3.12827531 3.14575321 -1.59960869 1.56117966 0 0 Z " fill="#2A3E5D" transform="translate(115,294)"/>
<path d="M0 0 C1 2 1 2 0.3125 4.5625 C-1 7 -1 7 -3.0625 7.625 C-3.701875 7.74875 -4.34125 7.8725 -5 8 C-5.33 8.99 -5.66 9.98 -6 11 C-6.99 10.67 -7.98 10.34 -9 10 C-6.03 6.7 -3.06 3.4 0 0 Z " fill="#E98B4A" transform="translate(362,220)"/>
<path d="M0 0 C0.33 0.66 0.66 1.32 1 2 C-1.29598016 5.68996811 -3.22792744 8.73675646 -7 11 C-7.66 11 -8.32 11 -9 11 C-9.33 11.99 -9.66 12.98 -10 14 C-10.66 13.67 -11.32 13.34 -12 13 C-11.34 12.01 -10.68 11.02 -10 10 C-9.34 10 -8.68 10 -8 10 C-7.67 9.01 -7.34 8.02 -7 7 C-5.0625 4.8125 -5.0625 4.8125 -3 3 C-2.34 3 -1.68 3 -1 3 C-0.67 2.01 -0.34 1.02 0 0 Z " fill="#F09455" transform="translate(379,202)"/>
<path d="M0 0 C1 2 1 2 0.0625 5.125 C-0.288125 6.07375 -0.63875 7.0225 -1 8 C-2.1446875 8.1546875 -2.1446875 8.1546875 -3.3125 8.3125 C-6.17059424 9.04364039 -7.15742885 9.76951913 -9 12 C-9.66 11.67 -10.32 11.34 -11 11 C-7.37 7.37 -3.74 3.74 0 0 Z " fill="#233A55" transform="translate(237,348)"/>
<path d="M0 0 C1 2 1 2 0.375 4.0625 C-1 6 -1 6 -3.625 6.75 C-4.800625 6.87375 -4.800625 6.87375 -6 7 C-6.33 8.32 -6.66 9.64 -7 11 C-8.32 10.67 -9.64 10.34 -11 10 C-5.555 5.05 -5.555 5.05 0 0 Z " fill="#394C6A" transform="translate(171,239)"/>
<path d="M0 0 C0.66 0.33 1.32 0.66 2 1 C1.21448343 2.31618998 0.4213763 3.62785228 -0.375 4.9375 C-0.81585938 5.66839844 -1.25671875 6.39929688 -1.7109375 7.15234375 C-3 9 -3 9 -5 10 C-5.99 9.34 -6.98 8.68 -8 8 C-7.01 7.67 -6.02 7.34 -5 7 C-4.29848848 5.6846659 -3.63474075 4.34882408 -3 3 C-1.375 1.25 -1.375 1.25 0 0 Z " fill="#40526B" transform="translate(254,156)"/>
<path d="M0 0 C0.33 0.66 0.66 1.32 1 2 C-3.625 7.75 -3.625 7.75 -7 10 C-7 10.99 -7 11.98 -7 13 C-8.65 13 -10.3 13 -12 13 C-8.19524578 8.43969176 -4.25030379 4.14910608 0 0 Z " fill="#293D54" transform="translate(250,335)"/>
<path d="M0 0 C0.66 0.33 1.32 0.66 2 1 C0.61811547 4.21043882 -0.92421903 6.04936365 -3.625 8.25 C-4.25664062 8.77078125 -4.88828125 9.2915625 -5.5390625 9.828125 C-6.02117187 10.21484375 -6.50328125 10.6015625 -7 11 C-7.33 10.01 -7.66 9.02 -8 8 C-7.34 8 -6.68 8 -6 8 C-6 6.68 -6 5.36 -6 4 C-4.35 4 -2.7 4 -1 4 C-0.67 2.68 -0.34 1.36 0 0 Z " fill="#344560" transform="translate(336,205)"/>
<path d="M0 0 C1 3 1 3 1 6 C-0.8125 7.75 -0.8125 7.75 -3 9 C-3.99 8.67 -4.98 8.34 -6 8 C-4.55746343 4.63408134 -2.66735273 2.48952921 0 0 Z " fill="#EF8B49" transform="translate(416,165)"/>
<path d="M0 0 C0 4.28535967 -2.2516278 5.84942699 -5 9 C-5.33 9.66 -5.66 10.32 -6 11 C-7.97888961 11.72693904 -9.97954558 12.39816251 -12 13 C-8.19524578 8.43969176 -4.25030379 4.14910608 0 0 Z " fill="#2D3F58" transform="translate(53,356)"/>
<path d="M0 0 C0.99 0.33 1.98 0.66 3 1 C1.52386015 2.50297876 0.04400843 4.00231285 -1.4375 5.5 C-2.26121094 6.3353125 -3.08492187 7.170625 -3.93359375 8.03125 C-6 10 -6 10 -7 10 C-7 8.35 -7 6.7 -7 5 C-5.35 4.67 -3.7 4.34 -2 4 C-2 3.34 -2 2.68 -2 2 C-1.34 2 -0.68 2 0 2 C0 1.34 0 0.68 0 0 Z " fill="#374B62" transform="translate(220,321)"/>
<path d="M0 0 C0 3.87851373 -0.86560376 5.76397989 -3 9 C-6.6875 10.375 -6.6875 10.375 -10 11 C-6.79239749 7.19364503 -3.59253891 3.45436433 0 0 Z " fill="#384966" transform="translate(344,67)"/>
<path d="M0 0 C0.33 0.99 0.66 1.98 1 3 C0.67 3.66 0.34 4.32 0 5 C-0.99 5 -1.98 5 -3 5 C-3.33 5.99 -3.66 6.98 -4 8 C-5.32 7.67 -6.64 7.34 -8 7 C-5.36 4.69 -2.72 2.38 0 0 Z " fill="#2D4160" transform="translate(158,434)"/>
<path d="M0 0 C2.125 0.375 2.125 0.375 4 1 C3.67 1.99 3.34 2.98 3 4 C2.01 4 1.02 4 0 4 C-1.65503095 5.0772721 -1.65503095 5.0772721 -3.1875 6.5 C-4.115625 7.325 -5.04375 8.15 -6 9 C-6.33 8.34 -6.66 7.68 -7 7 C-4.66666667 4.66666667 -2.33333333 2.33333333 0 0 Z " fill="#283857" transform="translate(421,120)"/>
<path d="M0 0 C0 0.99 0 1.98 0 3 C1.32 3.66 2.64 4.32 4 5 C3.195625 5.45375 2.39125 5.9075 1.5625 6.375 C-1.08856572 7.74725665 -1.08856572 7.74725665 -2 10 C-2.66 9.67 -3.32 9.34 -4 9 C-3.46930939 5.17902761 -2.50298434 2.93828597 0 0 Z " fill="#264564" transform="translate(69,339)"/>
<path d="M0 0 C0.99 0.33 1.98 0.66 3 1 C0.03 3.97 -2.94 6.94 -6 10 C-6.33 8.68 -6.66 7.36 -7 6 C-6.01 6 -5.02 6 -4 6 C-3.67 4.68 -3.34 3.36 -3 2 C-2.01 2 -1.02 2 0 2 C0 1.34 0 0.68 0 0 Z " fill="#3B4E69" transform="translate(209,332)"/>
<path d="M0 0 C0 4.13122742 -1.4277594 5.81854452 -4 9 C-7.25 10.375 -7.25 10.375 -10 11 C-6.79239749 7.19364503 -3.59253891 3.45436433 0 0 Z " fill="#3C4960" transform="translate(310,273)"/>
<path d="M0 0 C0.66 0.33 1.32 0.66 2 1 C-1.3 4.3 -4.6 7.6 -8 11 C-8.33 10.01 -8.66 9.02 -9 8 C-8.195625 7.21625 -7.39125 6.4325 -6.5625 5.625 C-4.01309583 3.28017144 -4.01309583 3.28017144 -3 1 C-2.01 0.67 -1.02 0.34 0 0 Z " fill="#33435D" transform="translate(271,271)"/>
<path d="M0 0 C0.66 0 1.32 0 2 0 C2 4.29 2 8.58 2 13 C1.67 13 1.34 13 1 13 C0.67 10.03 0.34 7.06 0 4 C-1.65 4.66 -3.3 5.32 -5 6 C-3.38405168 3.95880212 -1.7143618 1.95927063 0 0 Z " fill="#113455" transform="translate(194,401)"/>
<path d="M0 0 C0.66 0 1.32 0 2 0 C1.43040847 3.62613199 0.07625466 5.25517741 -2.5625 7.75 C-3.52349609 8.67039063 -3.52349609 8.67039063 -4.50390625 9.609375 C-4.99761719 10.06828125 -5.49132812 10.5271875 -6 11 C-6.33 10.01 -6.66 9.02 -7 8 C-6.21625 7.236875 -5.4325 6.47375 -4.625 5.6875 C-1.92742283 3.09108195 -1.92742283 3.09108195 0 0 Z " fill="#233555" transform="translate(311,229)"/>
<path d="M0 0 C0.33 0.66 0.66 1.32 1 2 C-0.1875 5.0625 -0.1875 5.0625 -2 8 C-4.52523328 9.10478956 -6.21359447 9 -9 9 C-6.03 6.03 -3.06 3.06 0 0 Z " fill="#3A4A68" transform="translate(316,95)"/>
<path d="M0 0 C0.33 0.99 0.66 1.98 1 3 C0.01 3.495 0.01 3.495 -1 4 C-1.33 4.99 -1.66 5.98 -2 7 C-4.0625 7.6875 -4.0625 7.6875 -6 8 C-6 5 -6 5 -4.6875 3.61328125 C-3.125 2.40885417 -1.5625 1.20442708 0 0 Z " fill="#2B4165" transform="translate(170,423)"/>
<path d="M0 0 C0.33 1.32 0.66 2.64 1 4 C-3.39453125 8.00390625 -3.39453125 8.00390625 -5 9 C-5.99 8.67 -6.98 8.34 -8 8 C-5.36 5.36 -2.72 2.72 0 0 Z " fill="#44526A" transform="translate(189,221)"/>
<path d="M0 0 C0.33 0 0.66 0 1 0 C1.19421438 2.95803435 1.38066186 5.91620163 1.5625 8.875 C1.61857422 9.71675781 1.67464844 10.55851563 1.73242188 11.42578125 C1.78076172 12.23144531 1.82910156 13.03710938 1.87890625 13.8671875 C1.94960327 14.98262939 1.94960327 14.98262939 2.02172852 16.12060547 C2 18 2 18 1 20 C0.01 19.67 -0.98 19.34 -2 19 C-1.67 18.34 -1.34 17.68 -1 17 C-0.76725791 14.12089412 -0.58027243 11.25853505 -0.4375 8.375 C-0.39431641 7.57320312 -0.35113281 6.77140625 -0.30664062 5.9453125 C-0.20048543 3.9637489 -0.09973145 1.98189729 0 0 Z " fill="#163159" transform="translate(508,185)"/>
<path d="M0 0 C0 0.99 0 1.98 0 3 C-2.25 4.75 -2.25 4.75 -5 6 C-7.3125 5.6875 -7.3125 5.6875 -9 5 C-4.32258065 0 -4.32258065 0 0 0 Z " fill="#2F4761" transform="translate(230,184)"/>
<path d="M0 0 C1.32 0 2.64 0 4 0 C4 0.99 4 1.98 4 3 C5.32 3.33 6.64 3.66 8 4 C8.33 5.65 8.66 7.3 9 9 C7.87105124 8.06725891 6.74699124 7.12859878 5.625 6.1875 C4.99851562 5.66542969 4.37203125 5.14335938 3.7265625 4.60546875 C2 3 2 3 0 0 Z " fill="#2F3C59" transform="translate(333,43)"/>
<path d="M0 0 C0 3.70411834 -0.75301769 5.078923 -3 8 C-6.1875 9.3125 -6.1875 9.3125 -9 10 C-8.06409496 8.8944811 -7.12620142 7.79064547 -6.1875 6.6875 C-5.66542969 6.07261719 -5.14335938 5.45773437 -4.60546875 4.82421875 C-3.12827531 3.14575321 -1.59960869 1.56117966 0 0 Z " fill="#32425B" transform="translate(105,304)"/>
<path d="M0 0 C2.31 1.98 4.62 3.96 7 6 C4.53721199 7.231394 2.7204945 7.07159196 0 7 C-1.125 2.25 -1.125 2.25 0 0 Z " fill="#F08032" transform="translate(447,187)"/>
<path d="M0 0 C0.66 1.32 1.32 2.64 2 4 C0.03533587 5.06775224 -1.96855359 6.06553465 -4 7 C-4.66 6.67 -5.32 6.34 -6 6 C-4.02 4.02 -2.04 2.04 0 0 Z M3 1 C3.66 1.33 4.32 1.66 5 2 C4.01 2 3.02 2 2 2 C2.33 1.67 2.66 1.34 3 1 Z " fill="#233B5B" transform="translate(177,416)"/>
<path d="M0 0 C1.32 0.33 2.64 0.66 4 1 C1.36 3.64 -1.28 6.28 -4 9 C-4.33 8.01 -4.66 7.02 -5 6 C-4.360625 5.566875 -3.72125 5.13375 -3.0625 4.6875 C-0.73253997 3.08760823 -0.73253997 3.08760823 0 0 Z " fill="#283A5A" transform="translate(349,191)"/>
<path d="M0 0 C1.32 0.33 2.64 0.66 4 1 C0.535 3.97 0.535 3.97 -3 7 C-2.25 2.25 -2.25 2.25 0 0 Z " fill="#30455E" transform="translate(257,283)"/>
<path d="M0 0 C0.66 0.99 1.32 1.98 2 3 C-0.39509338 5.89932357 -2.31245243 6.50168276 -6 7 C-4.02 4.69 -2.04 2.38 0 0 Z " fill="#2B435F" transform="translate(212,198)"/>
<path d="M0 0 C2.625 -0.1875 2.625 -0.1875 5 0 C3.02 2.31 1.04 4.62 -1 7 C-1.33 5.68 -1.66 4.36 -2 3 C-1.34 2.01 -0.68 1.02 0 0 Z " fill="#25395A" transform="translate(366,173)"/>
<path d="M0 0 C0.33 1.32 0.66 2.64 1 4 C-0.1875 5.8125 -0.1875 5.8125 -2 7 C-3.32 6.67 -4.64 6.34 -6 6 C-4.02 4.02 -2.04 2.04 0 0 Z " fill="#344663" transform="translate(323,88)"/>
<path d="M0 0 C0.66 0 1.32 0 2 0 C1.38722388 2.96175123 0.74627478 4.38058783 -1 7 C-1.66 7 -2.32 7 -3 7 C-2.25 2.25 -2.25 2.25 0 0 Z " fill="#1B3358" transform="translate(162,430)"/>
<path d="M0 0 C1.13199353 0.9080162 2.25532363 1.82683826 3.375 2.75 C4.00148438 3.26046875 4.62796875 3.7709375 5.2734375 4.296875 C7.08312318 6.08199481 8.00117455 7.67949644 9 10 C8.34 10 7.68 10 7 10 C6.67 9.34 6.34 8.68 6 8 C3.97536745 7.34786708 3.97536745 7.34786708 2 7 C1.34 4.69 0.68 2.38 0 0 Z " fill="#E98B4C" transform="translate(460,199)"/>
<path d="M0 0 C3.37462715 0.54723683 5.08235 1.0549 8 3 C7.01 3.99 6.02 4.98 5 6 C3.35 4.02 1.7 2.04 0 0 Z " fill="#243A56" transform="translate(325,35)"/>
<path d="M0 0 C0.66 0.99 1.32 1.98 2 3 C1.67 3.99 1.34 4.98 1 6 C-0.65 6.33 -2.3 6.66 -4 7 C-2.92598892 4.08482708 -2.22189824 2.22189824 0 0 Z " fill="#133256" transform="translate(72,337)"/>
<path d="M0 0 C0 3 0 3 -1 6 C-1.99 6.66 -2.98 7.32 -4 8 C-4.99 7.67 -5.98 7.34 -7 7 C-4.69 4.69 -2.38 2.38 0 0 Z " fill="#445267" transform="translate(220,190)"/>
<path d="M0 0 C0 3.16880694 -0.2058242 4.43689172 -2 7 C-4.625 7.75 -4.625 7.75 -7 8 C-6.02133662 6.85373678 -5.04205413 5.70800212 -4.0625 4.5625 C-3.51722656 3.92441406 -2.97195312 3.28632813 -2.41015625 2.62890625 C-1.63204305 1.73008851 -0.84063472 0.84063472 0 0 Z " fill="#46536C" transform="translate(9,399)"/>
<path d="M0 0 C0.99 0.33 1.98 0.66 3 1 C3.33 2.65 3.66 4.3 4 6 C3.01 6.66 2.02 7.32 1 8 C0.34 5.69 -0.32 3.38 -1 1 C-0.67 0.67 -0.34 0.34 0 0 Z " fill="#1E3E63" transform="translate(246,289)"/>
<path d="M0 0 C1.98 1.65 3.96 3.3 6 5 C2.86650268 6.04449911 2.01031744 5.93423645 -1 5 C-0.67 3.35 -0.34 1.7 0 0 Z " fill="#EF7E2C" transform="translate(487,227)"/>
<path d="M0 0 C0.33 1.32 0.66 2.64 1 4 C-1.375 5.5625 -1.375 5.5625 -4 7 C-4.66 6.67 -5.32 6.34 -6 6 C-4.02 4.02 -2.04 2.04 0 0 Z " fill="#EE9C65" transform="translate(403,178)"/>
<path d="M0 0 C0.99 0.33 1.98 0.66 3 1 C1.50260417 2.23697917 0.00520833 3.47395833 -1.4921875 4.7109375 C-2.71051161 5.75250992 -3.86660097 6.86660097 -5 8 C-5.33 7.01 -5.66 6.02 -6 5 C-5.01 4.67 -4.02 4.34 -3 4 C-3 3.34 -3 2.68 -3 2 C-2.01 2 -1.02 2 0 2 C0 1.34 0 0.68 0 0 Z " fill="#3E4D67" transform="translate(399,143)"/>
<path d="M0 0 C4.87685861 1.35468295 6.48592381 3.71675909 9 8 C5.18284914 6.44486447 2.77292558 4.00400272 0 1 C0 0.67 0 0.34 0 0 Z " fill="#28364D" transform="translate(291,0)"/>
<path d="M0 0 C1.32 0.33 2.64 0.66 4 1 C0.535 3.97 0.535 3.97 -3 7 C-3 6.01 -3 5.02 -3 4 C-2.34 4 -1.68 4 -1 4 C-0.67 2.68 -0.34 1.36 0 0 Z " fill="#48556B" transform="translate(149,392)"/>
<path d="M0 0 C1.32 0.66 2.64 1.32 4 2 C3.01 3.485 3.01 3.485 2 5 C-2 5 -2 5 -4 4 C-2.68 2.68 -1.36 1.36 0 0 Z " fill="#213E5B" transform="translate(255,330)"/>
<path d="M0 0 C0 3.16880694 -0.2058242 4.43689172 -2 7 C-4.625 7.75 -4.625 7.75 -7 8 C-6.02133662 6.85373678 -5.04205413 5.70800212 -4.0625 4.5625 C-3.51722656 3.92441406 -2.97195312 3.28632813 -2.41015625 2.62890625 C-1.63204305 1.73008851 -0.84063472 0.84063472 0 0 Z " fill="#263958" transform="translate(142,268)"/>
<path d="M0 0 C0 3.10551666 -0.5393715 4.35261084 -2 7 C-3.32 6.67 -4.64 6.34 -6 6 C-4.02 4.02 -2.04 2.04 0 0 Z " fill="#2B4163" transform="translate(200,210)"/>
<path d="M0 0 C2.4375 0.375 2.4375 0.375 5 1 C5.33 1.66 5.66 2.32 6 3 C3.36 3 0.72 3 -2 3 C-1.34 2.01 -0.68 1.02 0 0 Z " fill="#EC945F" transform="translate(419,162)"/>
<path d="M0 0 C1.65 0 3.3 0 5 0 C4.34 1.32 3.68 2.64 3 4 C2.01 4 1.02 4 0 4 C0 2.68 0 1.36 0 0 Z " fill="#253C5A" transform="translate(184,354)"/>
<path d="M0 0 C1 2 1 2 0.375 4.0625 C-1 6 -1 6 -3.625 6.75 C-4.800625 6.87375 -4.800625 6.87375 -6 7 C-4.02 4.69 -2.04 2.38 0 0 Z " fill="#364360" transform="translate(283,301)"/>
<path d="M0 0 C1.32 0.33 2.64 0.66 4 1 C3.67 2.32 3.34 3.64 3 5 C2.01 4.67 1.02 4.34 0 4 C0 2.68 0 1.36 0 0 Z " fill="#F77E24" transform="translate(467,214)"/>
<path d="M0 0 C0.99 0 1.98 0 3 0 C2.3125 1.9375 2.3125 1.9375 1 4 C-1.625 4.75 -1.625 4.75 -4 5 C-2.1875 2.5 -2.1875 2.5 0 0 Z " fill="#3F506A" transform="translate(230,180)"/>
<path d="M0 0 C1.32 0 2.64 0 4 0 C3.6875 1.9375 3.6875 1.9375 3 4 C2.01 4.33 1.02 4.66 0 5 C-0.33 4.34 -0.66 3.68 -1 3 C-0.67 2.01 -0.34 1.02 0 0 Z " fill="#1D3B61" transform="translate(472,168)"/>
<path d="M0 0 C1.32 0.33 2.64 0.66 4 1 C2.35 2.65 0.7 4.3 -1 6 C-1.66 5.67 -2.32 5.34 -3 5 C-2.01 3.35 -1.02 1.7 0 0 Z " fill="#273F61" transform="translate(245,165)"/>
<path d="M0 0 C0.99 0.33 1.98 0.66 3 1 C1.35 2.65 -0.3 4.3 -2 6 C-1.125 1.125 -1.125 1.125 0 0 Z " fill="#243C5A" transform="translate(295,116)"/>
</svg>
